<svg height="42" viewBox="0 0 42 42" width="42" xmlns="http://www.w3.org/2000/svg"><g opacity=".54" stroke="#000" stroke-width=".1" transform="translate(6 12)"><path d="m16.2481319 18.7066484c-1.4939011 0-2.7466484-1.0429121-3.0692308-2.4428572h-2.2862637c-.3914836 0-.7078022-.3194505-.7078022-.7078022v-14.82626372c0-.39148352.3163186-.7078022.7078022-.7078022h19.0918681c.3914835 0 .7078022.31631868.7078022.7078022v14.82626372c0 .3883517-.3163187.7078022-.7078022.7078022h-2.2017033c-.3914835 0-.7078022-.3194505-.7078022-.7078022 0-.9552198-.7798352-1.7381868-1.7381868-1.7381868-.9552198 0-1.735055.7798352-1.735055 1.7381868 0 .3883517-.3163186.7078022-.7078022.7078022h-3.5797252c-.3225824 1.3968132-1.5753297 2.4428572-3.0660989 2.4428572zm-4.6476923-3.8584616h2.2048351c.3914835 0 .7078022.3194506.7078022.7078022 0 .9583517.7798352 1.7381868 1.735055 1.7381868.9552197 0 1.7381868-.7798351 1.7381868-1.7381868 0-.3883516.3163187-.7078022.7078022-.7078022h3.585989c.3225824-1.3968132 1.5753297-2.4428571 3.0692308-2.4428571s2.7466483 1.0460439 3.0692307 2.4428571h.8675275v-13.41065933h-17.6856593z"/><path d="m16.2481319 18.7066484c-1.7381868 0-3.1506594-1.4124726-3.1506594-3.1506594s1.4124726-3.1506593 3.1506594-3.1506593 3.1506593 1.4124725 3.1506593 3.1506593c-.0031319 1.7381868-1.4156044 3.1506594-3.1506593 3.1506594m0-4.8857143c-.9552198 0-1.7381868.7798351-1.7381868 1.7381868 0 .9583516.7798351 1.7381868 1.7381868 1.7381868.9552197 0 1.7381868-.7798352 1.7381868-1.7381868 0-.9583517-.7829671-1.7381868-1.7381868-1.7381868"/><path d="m5.80021978 18.7066484c-1.4939011 0-2.74664835-1.0429121-3.06923077-2.4428572h-2.02318681c-.39148352 0-.7078022-.3194505-.7078022-.7078022v-7.12499999c0-.14093406.04384615-.27873626.12214286-.39774725l3.88664835-5.71252747c.13467033-.19104396.35076923-.30692308.58565934-.30692308h6.30131865c.3914835 0 .7078022.31631868.7078022.7078022v12.83439559c0 .3883517-.3163187.7078022-.7078022.7078022h-2.02318678c-.32571429 1.3968132-1.57846154 2.4428572-3.07236264 2.4428572zm-4.38774725-3.8584616h1.94175824c.39148352 0 .7078022.3194506.7078022.7078022 0 .9583517.77983516 1.7381868 1.73818681 1.7381868.95521978 0 1.73818681-.7798351 1.73818681-1.7381868 0-.3883516.31631868-.7078022.7078022-.7078022h1.94175821v-11.42192306h-5.22082414l-3.55467033 5.22395604z"/><path d="m25.3430769 18.7066484c-1.7381868 0-3.1506593-1.4124726-3.1506593-3.1506594s1.4124725-3.1506593 3.1506593-3.1506593 3.1506594 1.4124725 3.1506594 3.1506593-1.4124726 3.1506594-3.1506594 3.1506594m0-4.8857143c-.9552198 0-1.7381868.7798351-1.7381868 1.7381868 0 .9583516.7798352 1.7381868 1.7381868 1.7381868.9583517 0 1.7381868-.7798352 1.7381868-1.7381868 0-.9583517-.7798351-1.7381868-1.7381868-1.7381868"/><path d="m5.80021978 18.7066484c-1.73818681 0-3.15065934-1.4124726-3.15065934-3.1506594s1.41247253-3.1506593 3.15065934-3.1506593 3.15065934 1.4124725 3.15065934 3.1506593-1.41560439 3.1506594-3.15065934 3.1506594m0-4.8857143c-.95521978 0-1.73818681.7798351-1.73818681 1.7381868 0 .9583516.77983516 1.7381868 1.73818681 1.7381868.95521978 0 1.73818681-.7798352 1.73818681-1.7381868 0-.9583517-.78296703-1.7381868-1.73818681-1.7381868"/><path d="m8.24307692 9.39247253h-7.53527472c-.39148352 0-.7078022-.31631868-.7078022-.7078022s.31631868-.7078022.7078022-.7078022h6.83060439v-4.98593406c0-.39148352.31631868-.7078022.7078022-.7078022s.7078022.31631868.7078022.7078022v5.69373626c-.00313187.39148352-.32258242.7078022-.71093407.7078022"/></g></svg>