<?xml version="1.0" encoding="UTF-8"?>
<svg width="42px" height="42px" viewBox="0 0 42 42" version="1.1" xmlns="http://www.w3.org/2000/svg" xmlns:xlink="http://www.w3.org/1999/xlink">
    <!-- Generator: Sketch 52.6 (67491) - http://www.bohemiancoding.com/sketch -->
    <title>bike</title>
    <desc>Created with Sketch.</desc>
    <g id="Page-1" stroke="none" stroke-width="1" fill="none" fill-rule="evenodd" opacity="0.539999962">
        <g id="bike" fill="#000000">
            <path d="M9.682,24.8119 C9.593,24.9679 9.57,25.1489 9.618,25.3249 C9.665,25.4989 9.779,25.6449 9.933,25.7319 C10.083,25.8169 10.27,25.8409 10.445,25.7949 C10.619,25.7469 10.769,25.6329 10.857,25.4799 L12.762,22.1469 C13.67,22.9039 14.19,23.9959 14.19,25.1469 C14.19,27.3079 12.432,29.0649 10.27,29.0649 C8.108,29.0649 6.349,27.3079 6.349,25.1469 C6.349,23.8579 6.98,22.6479 8.036,21.9109 C8.685,21.4569 9.437,21.2249 10.21,21.2249 C10.668,21.2249 11.135,21.3059 11.591,21.4709 L9.682,24.8119 Z M15.502,14.6439 C15.502,15.2799 14.205,15.7229 12.912,15.8819 L12.912,13.4079 C14.168,13.5619 15.502,13.9679 15.502,14.6439 Z M27.44,24.4719 C28.18,24.0379 28.901,23.6349 29.584,23.2749 L30.182,24.4719 L27.44,24.4719 Z M31.276,25.8219 C31.509,25.8219 31.724,25.7029 31.85,25.5009 C31.971,25.3049 31.982,25.0549 31.878,24.8459 L30.789,22.6679 C31.636,22.2599 32.41,21.9319 33.09,21.6919 C34.388,22.3759 35.195,23.6989 35.195,25.1469 C35.195,27.3079 33.437,29.0649 31.276,29.0649 C29.369,29.0649 27.753,27.7029 27.424,25.8219 L31.276,25.8219 Z M30.619,19.9139 C31.787,19.9139 32.737,19.9989 33.442,20.1659 C33.27,20.2149 33.094,20.2699 32.916,20.3289 C29.397,21.4839 24.757,24.5209 23.85,25.1279 L18.81,25.1279 C17.954,24.5489 16.402,17.7049 16.57,15.9839 C20.136,16.1359 23.559,18.3489 24.883,19.7109 C25.077,19.9089 25.37,19.9689 25.622,19.8649 C25.877,19.7609 26.042,19.5159 26.042,19.2389 L26.042,19.2269 C27.216,19.1389 28.979,18.8739 29.944,18.7199 L29.944,19.2389 C29.944,19.6109 30.246,19.9139 30.619,19.9139 Z M34.81,21.2569 C34.95,21.2399 35.087,21.2269 35.213,21.2269 C35.575,21.2269 35.871,20.9429 35.888,20.5759 C35.893,20.4379 35.864,20.0779 35.497,19.6949 C34.836,19.0049 33.461,18.6389 31.293,18.5749 L31.293,17.9259 C31.293,17.7279 31.206,17.5409 31.056,17.4139 C30.899,17.2779 30.697,17.2239 30.506,17.2609 C30.468,17.2679 26.704,17.9079 25.368,17.9079 C25.242,17.9079 25.121,17.9409 25.013,18.0079 C23.203,16.5269 20.118,14.8779 16.864,14.6679 L16.871,14.4679 L20.328,13.3139 C20.497,13.2589 20.636,13.1409 20.717,12.9799 C20.799,12.8189 20.813,12.6349 20.755,12.4579 C20.633,12.1079 20.249,11.9209 19.9,12.0359 L16.242,13.2549 C15.066,12.1189 12.544,12.0089 12.239,11.9999 C12.044,12.0099 11.897,12.0699 11.774,12.1879 C11.64,12.3139 11.564,12.4919 11.564,12.6739 L11.564,16.6139 C11.564,16.7969 11.639,16.9729 11.768,17.0969 C11.894,17.2199 12.061,17.2879 12.243,17.2879 C12.251,17.2879 13.127,17.2709 14.124,17.0389 L12.275,20.2769 C11.633,20.0109 10.959,19.8769 10.27,19.8769 C7.364,19.8769 5,22.2409 5,25.1469 C5,28.0529 7.364,30.4169 10.27,30.4169 C13.175,30.4169 15.539,28.0529 15.539,25.1469 C15.539,23.5009 14.775,21.9759 13.44,20.9629 L15.349,17.6199 C15.667,20.1359 16.886,26.4789 18.803,26.4789 L24.054,26.4789 C24.192,26.4789 24.324,26.4359 24.432,26.3609 C24.835,26.0869 25.382,25.7299 26.022,25.3319 C26.121,28.1869 28.422,30.4169 31.276,30.4169 C34.18,30.4169 36.544,28.0529 36.544,25.1469 C36.544,23.6729 35.912,22.2569 34.81,21.2569 Z"></path>
        </g>
    </g>
</svg>