<?xml version="1.0" encoding="UTF-8"?>
<svg width="42px" height="42px" viewBox="0 0 42 42" version="1.1" xmlns="http://www.w3.org/2000/svg" xmlns:xlink="http://www.w3.org/1999/xlink">
    <!-- Generator: Sketch 52.6 (67491) - http://www.bohemiancoding.com/sketch -->
    <title>car</title>
    <desc>Created with Sketch.</desc>
    <g id="Page-1" stroke="none" stroke-width="1" fill="none" fill-rule="evenodd" opacity="0.539999962">
        <g id="car" fill="#000000">
            <path d="M34.489,23.522 C34.489,24.832 33.516,25.898 32.286,26.009 C32.054,23.828 30.27,22.118 28.084,22.118 C26.333,22.118 24.829,23.21 24.178,24.765 L17.629,24.765 C16.979,23.21 15.475,22.118 13.725,22.118 C11.543,22.118 9.76,23.823 9.526,26.001 C8.332,25.852 7.4,24.804 7.4,23.522 L7.4,22.114 C7.4,20.73 8.481,19.604 9.81,19.604 L32.081,19.604 C33.409,19.604 34.489,20.73 34.489,22.114 L34.489,23.522 Z M28.084,29.44 C26.513,29.44 25.236,28.112 25.236,26.479 C25.236,24.846 26.513,23.518 28.084,23.518 C29.654,23.518 30.93,24.846 30.93,26.479 C30.93,28.112 29.654,29.44 28.084,29.44 Z M13.725,29.44 C12.156,29.44 10.878,28.112 10.878,26.479 C10.878,24.846 12.156,23.518 13.725,23.518 C15.295,23.518 16.572,24.846 16.572,26.479 C16.572,28.112 15.295,29.44 13.725,29.44 Z M20.608,13.606 L20.608,18.204 L14.372,18.204 C15.226,17.062 17.525,14.365 20.608,13.606 Z M26.104,13.827 C28.563,14.449 30.505,15.824 32.28,18.225 C32.213,18.221 32.149,18.204 32.081,18.204 L22.008,18.204 L22.008,13.415 C22.085,13.412 22.159,13.399 22.237,13.399 C23.707,13.399 24.971,13.54 26.104,13.827 Z M34.93,19.546 L34.938,19.54 L34.376,18.816 C32.174,15.256 29.727,13.299 26.448,12.47 C25.202,12.154 23.825,12 22.237,12 C16.675,12 12.979,17.727 12.837,17.952 L12.666,18.204 L9.81,18.204 C7.709,18.204 6,19.958 6,22.114 L6,23.522 C6,25.596 7.588,27.283 9.581,27.408 C9.997,29.368 11.695,30.841 13.725,30.841 C16.068,30.841 17.972,28.885 17.972,26.479 C17.972,26.371 17.949,26.271 17.942,26.166 L23.866,26.166 C23.858,26.271 23.835,26.371 23.835,26.479 C23.835,28.885 25.74,30.841 28.084,30.841 C30.112,30.841 31.807,29.372 32.227,27.417 C34.259,27.335 35.89,25.626 35.89,23.522 L35.89,22.114 C35.89,21.126 35.52,20.234 34.93,19.546 Z"></path>
        </g>
    </g>
</svg>