<?xml version="1.0" encoding="UTF-8"?>
<svg width="42px" height="42px" viewBox="0 0 42 42" version="1.1" xmlns="http://www.w3.org/2000/svg" xmlns:xlink="http://www.w3.org/1999/xlink">
    <!-- Generator: Sketch 52.6 (67491) - http://www.bohemiancoding.com/sketch -->
    <title>pcv</title>
    <desc>Created with Sketch.</desc>
    <g id="Page-1" stroke="none" stroke-width="1" fill="none" fill-rule="evenodd" opacity="0.539999962">
        <g id="pcv" fill="#000000" fill-rule="nonzero">
            <path d="M6.86737394,12.0008133 C6.57862835,12.0242621 6.33011583,12.2140353 6.23146439,12.486417 L4.04624797,18.7761404 C4.0160263,18.8575579 4.00037147,18.9436595 4,19.0305043 L4,26.8001627 C4.00004074,27.2088185 4.33131159,27.5400894 4.73996747,27.5401301 L7.04080381,27.5401301 C7.38308242,29.227334 8.87555611,30.5 10.6597072,30.5 C12.4438583,30.5 13.936332,29.227334 14.2786106,27.5401301 L28.8698441,27.5401301 C29.2121227,29.227334 30.7045964,30.5 32.4887475,30.5 C34.2728986,30.5 35.7653723,29.227334 36.1076509,27.5401301 L38.0385035,27.5401301 C38.4471594,27.5400894 38.7784302,27.2088185 38.778471,26.8001627 L38.778471,21.6203904 C38.7808432,21.3536601 38.63949,21.106292 38.4084872,20.9729189 L33.3558969,18.0824209 L29.8872994,13.4807483 L31.3787963,13.4807483 C31.6456514,13.4845166 31.8938642,13.3443095 32.0283914,13.1138138 C32.1629186,12.8833181 32.1629186,12.5982434 32.0283914,12.3677477 C31.8938642,12.137252 31.6456514,11.997045 31.3787963,12.0008133 L6.93674589,12.0008133 C6.91363462,11.9997289 6.89048521,11.9997289 6.86737394,12.0008133 Z M7.45703551,13.4807483 L10.2897235,13.4807483 L10.2897235,17.9205531 L5.90772863,17.9205531 L7.45703551,13.4807483 Z M11.7696584,13.4807483 L16.9494307,13.4807483 L16.9494307,17.9205531 L11.7696584,17.9205531 L11.7696584,13.4807483 Z M18.4293656,13.4807483 L23.6091379,13.4807483 L23.6091379,17.9205531 L18.4293656,17.9205531 L18.4293656,13.4807483 Z M25.0890728,13.4807483 L28.0373807,13.4807483 L31.3787963,17.9205531 L25.0890728,17.9205531 L25.0890728,13.4807483 Z M5.47993493,19.400488 L32.6737394,19.400488 L37.298536,22.0481841 L37.298536,26.0601952 L36.1076509,26.0601952 C35.7610967,24.3784282 34.2690193,23.1003253 32.4887475,23.1003253 C30.7084757,23.1003253 29.2163982,24.3784282 28.8698441,26.0601952 L14.2786106,26.0601952 C13.9320565,24.3784282 12.439979,23.1003253 10.6597072,23.1003253 C8.87943539,23.1003253 7.38735795,24.3784282 7.04080381,26.0601952 L5.47993493,26.0601952 L5.47993493,19.400488 Z M10.6597072,24.5802603 C11.8944928,24.5802603 12.8796096,25.565379 12.8796096,26.8001627 C12.8796096,28.0349464 11.8944928,29.0200651 10.6597072,29.0200651 C9.42492164,29.0200651 8.4398048,28.0349464 8.4398048,26.8001627 C8.4398048,25.565379 9.42492164,24.5802603 10.6597072,24.5802603 Z M32.4887475,24.5802603 C33.7235331,24.5802603 34.7086499,25.565379 34.7086499,26.8001627 C34.7086499,28.0349464 33.7235331,29.0200651 32.4887475,29.0200651 C31.2539619,29.0200651 30.2688451,28.0349464 30.2688451,26.8001627 C30.2688451,25.565379 31.2539619,24.5802603 32.4887475,24.5802603 Z" id="Shape" transform="translate(21.389250, 21.250000) scale(-1, 1) translate(-21.389250, -21.250000) "></path>
        </g>
    </g>
</svg>