<?xml version="1.0" encoding="UTF-8"?>
<svg width="104px" height="15px" viewBox="0 0 104 15" version="1.1" xmlns="http://www.w3.org/2000/svg" xmlns:xlink="http://www.w3.org/1999/xlink">
    <!-- Generator: Sketch 54.1 (76490) - https://sketchapp.com -->
    <title>id-main-logo</title>
    <desc>Created with Sketch.</desc>
    <g id="Page-1" stroke="none" stroke-width="1" fill="none" fill-rule="evenodd">
        <g id="id-main-logo" fill-rule="nonzero">
            <polygon id="Fill-128" fill="#FF2D3C" points="0 2 2 2 2 0 0 0"></polygon>
            <g id="Group-154">
                <path d="M10.9364374,8.0150815 C10.9364374,9.28486123 10.2441621,10.4583634 9.12021922,11.0930551 L7.66725818,11.913826 L7.66725818,10.1837379 C7.66725818,8.91402423 8.35953351,7.74052203 9.48347636,7.10576432 L10.9364374,6.28499339 L10.9364374,8.0150815 Z M13.1135491,0.0360726872 L13.1135491,0.0360726872 L10.9364374,0.0360726872 L4.39571532,0.0360726872 L4.39571532,2.166337 L10.9364374,2.166337 L10.9364374,3.82486123 L8.21420364,5.36265859 C6.52845818,6.31492731 5.49021403,8.07488326 5.49021403,9.97968502 L5.49021403,11.8640683 L4.03239065,11.0403238 C2.90871792,10.4056322 2.21617247,9.23212996 2.21617247,7.96235022 L2.21617247,4.30116079 L0.0391283117,4.30116079 L0.0391283117,8.16640308 C0.0391283117,10.0712048 1.07771013,11.8311608 2.76345558,12.7834295 L5.49021403,14.3239361 L6.6229361,14.9639141 L7.66725818,14.3738921 L10.3894244,12.8361608 C12.0751699,11.8838921 13.1134816,10.1239361 13.1134816,8.21913436 L13.1134816,6.3347511 L13.1134816,3.87494934 L13.1134816,2.166337 L13.1135491,2.166337 L13.1135491,0.0360726872 Z" id="Fill-129" fill="#FF2D3C"></path>
                <path d="M46.3187299,5.36713877 C46.3187299,4.46165419 45.7017532,3.89436344 44.8496961,3.89436344 C43.9986519,3.89436344 43.3816753,4.46165419 43.3816753,5.36713877 C43.3816753,6.27315198 43.9986519,6.84044273 44.8496961,6.84044273 C45.7017532,6.84044273 46.3187299,6.27315198 46.3187299,5.36713877 L46.3187299,5.36713877 Z M48.1695247,2.17967181 L48.1695247,8.56630176 L46.3187299,8.56630176 L46.3187299,7.81868062 C45.9107662,8.277337 45.3058779,8.55506828 44.4799558,8.55506828 C42.8632286,8.55506828 41.5298675,7.16634581 41.5298675,5.36713877 C41.5298675,3.56839427 42.8632286,2.17967181 44.4799558,2.17967181 C45.3058779,2.17967181 45.9107662,2.45746916 46.3187299,2.91605947 L46.3187299,2.17967181 L48.1695247,2.17967181 Z" id="Fill-131" fill="#FFFFFF"></path>
                <path d="M40.9850223,2.17965198 L40.9850223,4.25044493 C40.2126535,4.12846256 39.1180197,4.43295595 39.1180197,5.63890308 L39.1180197,8.56628194 L37.2500717,8.56628194 L37.2500717,2.17965198 L39.1180197,2.17965198 L39.1180197,3.3856652 C39.3663366,2.56938767 40.2004977,2.17965198 40.9850223,2.17965198" id="Fill-133" fill="#FFFFFF"></path>
                <polygon id="Fill-135" fill="#FFFFFF" points="88.2130634 8.56630176 86.3029075 5.98484802 86.3029075 8.56630176 84.5114062 8.56630176 84.5114062 0.0508612335 86.3029075 0.0508612335 86.3029075 4.73779956 88.0934634 2.17973789 90.1824452 2.17973789 88.0099257 5.27456167 90.2418062 8.56630176"></polygon>
                <path d="M96.6973294,4.59754626 L96.6973294,8.5663348 L94.9067735,8.5663348 L94.9067735,4.85485903 C94.9067735,4.1304978 94.4411371,3.79144493 93.8685969,3.79144493 C93.211506,3.79144493 92.7584982,4.16518943 92.7584982,4.99461674 L92.7584982,8.5663348 L90.9669969,8.5663348 L90.9669969,0.0508281938 L92.7584982,0.0508281938 L92.7584982,2.89203965 C93.0802904,2.4597489 93.6771423,2.17970485 94.4654488,2.17970485 C95.6708358,2.17970485 96.6973294,3.0204978 96.6973294,4.59754626" id="Fill-137" fill="#FFFFFF"></path>
                <path d="M102.111961,5.36713877 C102.111961,4.50975991 101.494984,3.94246916 100.693171,3.94246916 C99.8913584,3.94246916 99.2743818,4.50975991 99.2743818,5.36713877 C99.2743818,6.22451762 99.8913584,6.79220485 100.693171,6.79220485 C101.494984,6.79220485 102.111961,6.22451762 102.111961,5.36713877 M97.422574,5.36713877 C97.422574,3.56839427 98.8795195,2.17973789 100.693171,2.17973789 C102.506823,2.17973789 103.963769,3.56839427 103.963769,5.36713877 C103.963769,7.16634581 102.506823,8.55506828 100.693171,8.55506828 C98.8795195,8.55506828 97.422574,7.16634581 97.422574,5.36713877" id="Fill-139" fill="#FFFFFF"></path>
                <path d="M74.9620249,4.29379956 C74.9620249,2.83278634 74.0173808,1.87272026 72.6462016,1.87272026 L71.1530587,1.87272026 L71.1530587,6.71487885 L72.6462016,6.71487885 C74.0113029,6.71487885 74.9620249,5.7547467 74.9620249,4.29379956 M76.8147106,4.29379956 C76.8147106,6.7029185 74.9864042,8.55155286 72.5852197,8.55155286 L69.300373,8.55155286 L69.300373,0.0360462555 L72.5852197,0.0360462555 C74.9864042,0.0360462555 76.8147106,1.88461454 76.8147106,4.29379956" id="Fill-141" fill="#FFFFFF"></path>
                <path d="M81.9378857,4.73467401 C81.7426494,4.03634802 81.1814545,3.77969604 80.6264052,3.77969604 C79.9248779,3.77969604 79.4490442,4.11987225 79.2782545,4.73467401 L81.9378857,4.73467401 Z M80.8032727,6.937163 C81.1676104,6.937163 81.4941299,6.83824229 81.7417039,6.68262555 L83.4750597,7.31315419 C82.8711844,8.13689868 81.956187,8.5606652 80.778826,8.5606652 C78.6682338,8.5606652 77.3567532,7.16996035 77.3567532,5.36738326 C77.3567532,3.56480617 78.692613,2.17410132 80.6447065,2.17410132 C82.4502545,2.17410132 83.7861818,3.54095154 83.7861818,5.36738326 C83.7861818,5.62403524 83.7618026,5.86277974 83.7129766,6.09557709 L79.327013,6.09557709 C79.552774,6.72227313 80.1200468,6.937163 80.8032727,6.937163 L80.8032727,6.937163 Z" id="Fill-143" fill="#FFFFFF"></path>
                <path d="M66.7287366,4.74028414 C66.5335678,4.04195815 65.9723055,3.78530617 65.4172561,3.78530617 C64.7157288,3.78530617 64.2398951,4.12548238 64.0691055,4.74028414 L66.7287366,4.74028414 Z M65.5941236,6.94277313 C65.9585288,6.94277313 66.2849808,6.84385242 66.5326223,6.68823568 L68.2659782,7.31876432 C67.6620353,8.14244273 66.7470379,8.56627533 65.5697444,8.56627533 C63.4590847,8.56627533 62.1476042,7.17557048 62.1476042,5.37299339 C62.1476042,3.5704163 63.4835314,2.17964537 65.4355574,2.17964537 C67.2411055,2.17964537 68.5771003,3.54656167 68.5771003,5.37299339 C68.5771003,5.62964537 68.5526535,5.86838987 68.5038951,6.10118722 L64.1179314,6.10118722 C64.3436249,6.72788326 64.9109652,6.94277313 65.5941236,6.94277313 L65.5941236,6.94277313 Z" id="Fill-145" fill="#FFFFFF"></path>
                <polygon id="Fill-147" fill="#FFFFFF" points="15.2930649 8.56632159 17.2823013 8.56632159 17.2823013 0.050814978 15.2930649 0.050814978"></polygon>
                <path d="M24.1126499,4.75177533 L24.1126499,8.5663348 L22.2078966,8.5663348 L22.2078966,5.02514537 C22.2078966,4.25472687 21.7126135,3.89439648 21.103133,3.89439648 C20.4046447,3.89439648 19.9221927,4.29206167 19.9221927,5.17415419 L19.9221927,8.5663348 L18.0173719,8.5663348 L18.0173044,2.17963877 L19.9221252,2.17963877 L19.9221927,2.93763436 C20.2649875,2.4779207 20.8999278,2.17963877 21.7380732,2.17963877 C23.0205823,2.17963877 24.1126499,3.07435242 24.1126499,4.75177533" id="Fill-149" fill="#FFFFFF"></path>
                <path d="M54.9882104,4.75177533 L54.9882104,8.5663348 L53.0834571,8.5663348 L53.0834571,5.02514537 C53.0834571,4.25472687 52.588174,3.89439648 51.9786935,3.89439648 C51.2802052,3.89439648 50.7977532,4.29206167 50.7977532,5.17415419 L50.7977532,8.5663348 L48.8929325,8.5663348 L48.8928649,2.17963877 L50.7976857,2.17963877 L50.7977532,2.93763436 C51.1405481,2.4779207 51.7754883,2.17963877 52.6136338,2.17963877 C53.8961429,2.17963877 54.9882104,3.07435242 54.9882104,4.75177533" id="Fill-150" fill="#FFFFFF"></path>
                <path d="M27.3152826,8.5663348 C26.0791008,8.5663348 25.1395891,8.10662115 24.6575423,7.12686344 L26.2645449,6.23181938 C26.4252722,6.69146696 26.7713761,6.94547577 27.3152826,6.94547577 C27.7603216,6.94547577 27.9827735,6.81245815 27.9827735,6.57047577 C27.9827735,5.90518943 24.941854,6.25600441 24.941854,4.16347137 C24.941854,2.84499119 26.0791008,2.17963877 27.3647839,2.17963877 C28.3660203,2.17963877 29.2560982,2.6151674 29.7752878,3.47393392 L28.1930021,4.3085815 C28.0198488,3.99404405 27.77268,3.77637885 27.3647839,3.77637885 C27.0432618,3.77637885 26.8455943,3.89730396 26.8455943,4.11503524 C26.8455943,4.80450661 29.8865138,4.34485903 29.8865138,6.58263436 C29.8865138,7.9736696 28.6503319,8.5663348 27.3152826,8.5663348 Z" id="Fill-151" fill="#FFFFFF"></path>
                <path d="M36.5267584,2.17965198 L36.5266909,8.56628194 L34.6218701,8.56628194 L34.6219377,7.80835242 C34.2790753,8.26806608 33.6441351,8.56628194 32.8060571,8.56628194 C31.523413,8.56628194 30.4313455,7.67170044 30.4313455,5.99434361 L30.4313455,2.17965198 L32.3361662,2.17965198 L32.3361662,5.72090749 C32.3361662,6.49119383 32.8314494,6.85159031 33.4409299,6.85159031 C34.1394182,6.85159031 34.6219377,6.45405727 34.6219377,5.57176652 L34.6219377,2.17965198 L36.5267584,2.17965198 Z" id="Fill-152" fill="#FFFFFF"></path>
                <path d="M55.5330556,5.37300661 C55.5330556,3.57075991 56.9299647,2.17965859 58.8089881,2.17965859 C60.008027,2.17965859 61.0711231,2.79664097 61.6027387,3.72789648 L59.9832426,4.64725771 C59.7731491,4.22395374 59.3281101,3.96987885 58.7842036,3.96987885 C57.9807023,3.96987885 57.3873621,4.53835903 57.3873621,5.37300661 C57.3873621,6.20765419 57.9807023,6.77613436 58.7842036,6.77613436 C59.3281101,6.77613436 59.7855751,6.52212555 59.9832426,6.09868943 L61.6027387,7.00589207 C61.0711231,7.94943833 60.020453,8.56628855 58.8089881,8.56628855 C56.9299647,8.56628855 55.5330556,7.1752533 55.5330556,5.37300661" id="Fill-153" fill="#FFFFFF"></path>
            </g>
        </g>
    </g>
</svg>